<?xml version="1.0" standalone="no"?>
<!DOCTYPE svg PUBLIC "-//W3C//DTD SVG 20010904//EN"
 "http://www.w3.org/TR/2001/REC-SVG-20010904/DTD/svg10.dtd">
<svg version="1.0" xmlns="http://www.w3.org/2000/svg"
 width="4447.000000pt" height="2709.000000pt" viewBox="0 0 4447.000000 2709.000000"
 preserveAspectRatio="xMidYMid meet">

<g transform="translate(0.000000,2709.000000) scale(0.100000,-0.100000)"
fill="#000000" stroke="none">
<path d="M20775 27024 c-205 -1832 -705 -3486 -1584 -5244 -1330 -2659 -3462
-5295 -6146 -7599 -532 -457 -1216 -999 -1604 -1271 -34 -24 -60 -45 -58 -47
4 -3 400 155 797 319 4163 1715 7471 3598 9690 5517 494 427 995 923 1372
1356 367 423 735 951 864 1243 l24 54 -1662 2847 c-914 1565 -1667 2854 -1674
2865 -11 16 -13 11 -19 -40z"/>
<path d="M15436 25458 c-491 -3406 -1662 -6549 -3427 -9196 -696 -1044 -1522
-2038 -2244 -2701 l-90 -82 175 103 c2818 1672 5218 3896 6857 6353 404 607
776 1258 1003 1759 l81 179 -34 56 c-77 128 -2280 3707 -2286 3714 -4 4 -20
-79 -35 -185z"/>
<path d="M27752 23798 c-26 -292 -95 -646 -187 -967 -198 -691 -549 -1402
-1037 -2103 -1117 -1603 -2990 -3199 -5563 -4743 -2017 -1210 -4555 -2417
-7070 -3362 -280 -105 -709 -260 -838 -303 -38 -12 -67 -24 -65 -26 5 -5 410
-54 808 -98 1286 -143 2556 -239 3810 -286 1105 -42 2579 -42 3650 0 3411 132
6671 638 9560 1481 1215 355 2461 810 3217 1176 l141 68 -3201 4647 c-1761
2556 -3204 4647 -3207 4647 -4 1 -11 -59 -18 -131z"/>
<path d="M7500 8924 c-965 -115 -1713 -731 -2044 -1684 -133 -381 -194 -790
-183 -1223 26 -1038 448 -1879 1181 -2356 438 -284 990 -417 1584 -381 585 35
1030 199 1449 535 609 488 973 1344 973 2290 0 850 -291 1625 -800 2135 -385
385 -877 618 -1446 685 -161 19 -553 18 -714 -1z m546 -594 c382 -31 686 -155
973 -395 270 -226 493 -591 606 -990 192 -675 135 -1487 -145 -2060 -190 -388
-455 -662 -817 -844 -342 -171 -875 -217 -1295 -110 -619 156 -1095 674 -1277
1390 -133 524 -135 1037 -6 1552 107 423 324 799 602 1043 368 321 816 457
1359 414z"/>
<path d="M10 6110 l0 -2710 340 0 340 0 0 2175 c0 1196 3 2175 8 2175 4 -1
644 -979 1422 -2175 l1414 -2175 398 0 398 0 -2 2708 -3 2707 -340 0 -340 0
-5 -2200 -5 -2200 -92 140 c-51 77 -695 1067 -1431 2200 l-1338 2060 -382 3
-382 2 0 -2710z"/>
<path d="M10840 8515 l0 -305 905 0 905 0 0 -2405 0 -2405 360 0 360 0 0 2405
0 2405 905 0 905 0 -2 303 -3 302 -2167 3 -2168 2 0 -305z"/>
<path d="M21160 6085 l0 -2715 370 0 370 0 0 1160 0 1161 983 -3 c907 -3 988
-5 1062 -22 154 -35 314 -128 407 -237 124 -146 181 -304 247 -689 39 -224 48
-324 61 -655 17 -409 42 -561 109 -668 l31 -47 411 0 411 0 -31 38 c-80 101
-150 271 -195 476 -47 209 -57 302 -86 806 -21 356 -74 614 -165 805 -117 245
-309 398 -590 470 -38 10 -73 21 -78 25 -4 3 37 21 90 39 203 69 387 182 509
313 351 379 459 1104 243 1625 -164 394 -550 683 -1044 782 -225 45 -197 44
-1687 48 l-1428 4 0 -2716z m2750 2095 c343 -43 555 -180 689 -447 122 -244
132 -653 21 -899 -109 -244 -331 -413 -630 -483 -200 -47 -299 -51 -1222 -51
l-868 0 0 945 0 945 963 0 c607 0 994 -4 1047 -10z"/>
<path d="M26560 6085 l0 -2715 365 0 365 0 0 2715 0 2715 -365 0 -365 0 0
-2715z"/>
<path d="M30149 8723 c-49 -129 -2049 -5372 -2054 -5386 -7 -16 12 -17 355
-15 l362 3 297 815 298 815 1125 3 1125 2 136 -382 c75 -211 206 -579 291
-818 l154 -435 392 -3 c231 -1 390 1 388 7 -1 5 -469 1226 -1038 2715 l-1035
2706 -393 0 -392 0 -11 -27z m419 -680 c11 -32 209 -600 441 -1262 232 -662
420 -1205 418 -1207 -2 -2 -406 -3 -898 -2 l-895 3 251 705 c138 388 340 956
449 1263 109 306 202 557 206 557 5 0 17 -26 28 -57z"/>
<path d="M35097 8669 c-52 -216 -176 -410 -340 -535 -80 -60 -257 -146 -372
-179 -173 -50 -453 -85 -687 -85 l-88 0 0 -355 0 -355 595 0 595 0 0 -1900 0
-1900 600 0 600 0 0 2690 0 2690 -443 0 -443 0 -17 -71z"/>
<path d="M16472 6026 c-573 -1487 -1042 -2707 -1042 -2710 0 -3 163 -5 362 -4
l363 3 300 815 300 815 1132 3 c1071 2 1133 1 1141 -15 5 -10 139 -379 297
-820 l288 -803 394 0 c218 0 393 4 391 9 -1 4 -473 1224 -1048 2710 l-1045
2701 -396 0 -395 0 -1042 -2704z m1456 1997 c17 -52 858 -2429 869 -2460 4
-10 -180 -13 -900 -13 -498 0 -908 3 -910 8 -2 4 200 572 449 1262 249 690
453 1256 453 1258 1 1 5 2 10 2 5 0 18 -26 29 -57z"/>
<path d="M39125 8720 c-412 -34 -733 -128 -975 -285 -164 -106 -351 -325 -435
-508 -99 -215 -139 -417 -151 -759 l-7 -198 580 0 580 0 7 143 c15 302 41 439
111 584 76 157 190 252 351 293 97 25 297 27 393 5 191 -45 323 -185 378 -400
25 -96 24 -493 0 -637 -52 -301 -200 -514 -577 -828 -543 -453 -710 -600 -916
-805 -121 -121 -260 -269 -308 -330 -387 -486 -563 -950 -589 -1552 l-4 -93
1828 0 1829 0 0 425 0 425 -1119 0 -1120 0 15 43 c22 66 102 208 174 309 110
157 298 334 795 749 253 211 520 442 594 514 423 412 601 797 627 1356 17 366
-64 695 -234 954 -58 89 -216 246 -307 306 -213 141 -483 232 -815 274 -149
19 -550 27 -705 15z"/>
<path d="M43552 8613 c-27 -109 -115 -287 -182 -370 -128 -159 -334 -280 -590
-344 -152 -38 -305 -57 -527 -65 l-183 -7 0 -354 0 -353 590 0 590 0 0 -1900
0 -1900 605 0 605 0 0 2690 0 2690 -443 0 -442 0 -23 -87z"/>
<path d="M12086 2309 c-224 -33 -433 -141 -580 -300 -193 -208 -286 -481 -286
-840 0 -167 17 -282 60 -411 74 -220 187 -384 351 -508 169 -127 349 -188 579
-197 162 -6 271 10 415 61 154 55 236 107 350 221 150 150 234 307 288 539 29
125 31 467 4 593 -101 469 -392 762 -831 838 -95 16 -254 18 -350 4z m321
-254 c175 -33 352 -155 448 -310 160 -256 190 -686 69 -995 -84 -215 -263
-375 -482 -431 -103 -26 -271 -26 -374 0 -144 37 -271 118 -366 231 -61 73
-133 215 -156 305 -70 277 -29 678 90 881 64 109 204 227 332 279 131 53 292
68 439 40z"/>
<path d="M470 1218 c-222 -585 -409 -1078 -417 -1096 l-13 -32 153 0 153 0 38
107 c21 60 74 208 118 331 l81 222 456 -2 456 -3 124 -328 125 -327 163 0 163
0 -13 33 c-7 17 -207 510 -443 1094 l-429 1063 -156 0 -155 0 -404 -1062z
m809 103 c66 -179 121 -326 121 -328 0 -2 -164 -3 -365 -3 -201 0 -365 2 -365
4 0 2 61 170 136 372 115 311 177 505 209 649 5 25 17 -2 74 -170 38 -110 123
-346 190 -524z"/>
<path d="M2310 1185 l0 -1095 135 0 135 0 0 928 c0 517 4 920 9 912 5 -8 134
-386 286 -840 153 -454 291 -865 307 -913 l30 -88 131 3 131 3 310 904 311
904 3 -906 2 -907 140 0 140 0 0 1095 0 1095 -193 0 -194 0 -313 -922 c-171
-508 -314 -930 -317 -938 -3 -8 -18 23 -34 70 -15 47 -154 469 -309 938 l-281
852 -215 0 -214 0 0 -1095z"/>
<path d="M5442 2253 c-5 -16 -186 -491 -402 -1058 -216 -566 -398 -1047 -406
-1067 l-13 -38 152 0 152 0 114 319 c62 175 116 323 120 330 5 8 128 11 460 9
l454 -3 123 -324 c68 -179 126 -326 128 -328 2 -2 75 -2 163 -1 l160 3 -441
1090 -442 1090 -156 3 -156 2 -10 -27z m401 -893 c69 -184 128 -343 132 -352
7 -17 -14 -18 -359 -18 -201 0 -366 3 -366 6 0 4 56 158 124 343 132 359 173
482 201 601 9 41 19 82 21 90 3 8 31 -64 63 -160 32 -96 115 -326 184 -510z"/>
<path d="M6890 1185 l0 -1095 140 0 140 0 2 854 3 854 565 -854 564 -854 148
0 148 0 0 1095 0 1095 -135 0 -135 0 0 -856 c0 -504 -4 -853 -9 -850 -5 3
-262 388 -572 856 l-562 850 -149 0 -148 0 0 -1095z"/>
<path d="M9100 1185 l0 -1095 473 0 c518 0 582 5 741 59 154 51 279 146 373
283 65 94 84 132 126 254 63 182 72 242 72 504 0 261 -9 324 -69 502 -50 148
-106 238 -216 349 -107 107 -198 162 -331 198 -125 34 -237 41 -711 41 l-458
0 0 -1095z m1053 812 c129 -37 231 -115 312 -237 54 -82 88 -168 112 -286 24
-123 24 -432 0 -557 -51 -256 -159 -426 -319 -502 -119 -57 -184 -65 -545 -72
l-323 -6 0 842 0 843 353 -4 c288 -4 362 -8 410 -21z"/>
<path d="M19611 2269 c-159 -19 -301 -68 -405 -143 -269 -192 -312 -589 -87
-813 116 -116 227 -164 594 -259 305 -78 362 -96 450 -142 127 -66 184 -161
175 -296 -8 -126 -80 -223 -215 -287 -88 -42 -178 -59 -316 -59 -146 0 -246
20 -352 69 -154 72 -247 189 -281 353 -8 40 -17 74 -19 76 -2 2 -55 -1 -117
-7 -63 -6 -122 -11 -132 -11 -17 0 -18 -6 -12 -61 28 -270 194 -499 435 -599
153 -62 292 -84 516 -78 196 6 287 27 430 101 106 55 226 173 273 269 42 85
72 205 72 283 0 76 -29 195 -66 267 -33 65 -149 181 -226 226 -83 49 -251 105
-486 162 -273 67 -363 95 -444 137 -108 56 -155 139 -146 257 6 73 24 112 81
173 78 84 180 121 362 130 331 15 515 -97 572 -348 l16 -70 76 6 c42 3 102 8
134 11 l57 6 0 36 c0 55 -26 154 -58 224 -105 227 -320 358 -641 388 -118 11
-135 11 -240 -1z"/>
<path d="M25520 2269 c-288 -35 -529 -166 -680 -369 -137 -185 -206 -403 -217
-685 -9 -229 27 -434 112 -643 50 -123 119 -227 210 -317 115 -113 213 -168
393 -217 67 -19 104 -22 287 -22 201 0 214 1 298 27 156 48 262 113 368 223
75 79 113 132 158 222 35 69 95 241 87 249 -6 6 -278 75 -281 71 -1 -2 -10
-32 -20 -68 -65 -239 -229 -410 -448 -467 -84 -22 -252 -22 -337 0 -36 10
-103 36 -150 59 -203 99 -327 302 -369 603 -16 110 -13 335 4 442 34 208 97
346 209 459 132 131 272 187 481 188 133 1 197 -11 291 -55 118 -56 212 -164
275 -319 18 -44 38 -79 44 -77 5 2 68 17 138 33 147 33 139 20 86 152 -106
266 -334 450 -619 501 -89 15 -239 20 -320 10z"/>
<path d="M33450 2265 c-230 -36 -439 -140 -573 -284 -77 -83 -110 -134 -167
-254 -89 -186 -130 -374 -130 -592 0 -271 68 -508 201 -700 256 -371 814 -522
1319 -356 103 34 297 135 398 207 l92 67 0 408 0 409 -460 0 -460 0 0 -130 0
-130 320 0 320 0 0 -204 0 -204 -47 -35 c-175 -128 -454 -210 -653 -193 -309
27 -530 168 -646 411 -110 230 -120 602 -24 868 115 313 363 477 721 477 136
0 228 -20 335 -70 135 -65 229 -180 280 -342 10 -32 20 -58 23 -58 14 1 242
68 248 73 10 11 -36 144 -83 237 -105 210 -308 345 -593 394 -113 19 -301 20
-421 1z"/>
<path d="M43073 2265 c-138 -25 -281 -82 -392 -157 -80 -54 -222 -207 -274
-296 -109 -185 -167 -420 -167 -677 0 -327 102 -608 292 -810 208 -220 493
-330 808 -311 436 25 773 282 908 691 89 270 89 608 1 877 -54 165 -121 280
-233 397 -146 152 -321 245 -539 286 -96 18 -303 18 -404 0z m389 -254 c238
-61 418 -235 502 -485 73 -215 73 -547 1 -763 -111 -331 -384 -517 -731 -500
-198 9 -353 82 -489 230 -76 81 -152 226 -180 340 -48 198 -34 531 30 723 77
227 263 397 500 455 100 25 270 25 367 0z"/>
<path d="M14400 1140 l0 -1101 138 3 137 3 5 923 5 922 310 -922 311 -923 129
0 130 0 310 902 c171 496 313 905 318 909 4 4 7 -403 7 -904 l0 -912 135 0
135 0 0 1100 0 1100 -192 -2 -192 -3 -114 -335 c-63 -184 -206 -605 -318 -935
-134 -395 -205 -593 -209 -580 -4 11 -143 432 -309 935 l-302 915 -217 3 -217
2 0 -1100z"/>
<path d="M17536 2208 c-38 -91 -810 -2126 -814 -2145 l-4 -23 148 0 149 0 120
335 120 335 455 0 455 0 126 -333 126 -332 162 -3 c88 -1 161 1 161 5 0 4
-199 499 -442 1100 l-443 1093 -153 0 -153 0 -13 -32z m423 -951 c61 -164 111
-302 111 -308 0 -5 -144 -9 -365 -9 -201 0 -365 2 -365 5 0 3 61 169 135 369
128 346 178 498 205 631 l12 60 78 -225 c42 -124 127 -359 189 -523z"/>
<path d="M20860 2110 l0 -130 360 0 360 0 0 -970 0 -970 140 0 140 0 0 970 0
970 360 0 360 0 0 130 0 130 -860 0 -860 0 0 -130z"/>
<path d="M23252 2213 c-5 -16 -192 -509 -416 -1096 -223 -588 -406 -1071 -406
-1073 0 -3 68 -3 151 -2 l151 3 79 220 c44 121 98 271 120 333 l41 112 455 -2
455 -3 126 -332 127 -333 162 0 c90 0 163 1 163 3 0 1 -200 495 -444 1097
l-444 1095 -155 3 -155 2 -10 -27z m209 -366 c26 -78 110 -312 188 -520 78
-208 141 -380 141 -383 0 -2 -164 -4 -365 -4 -262 0 -365 3 -365 11 0 6 60
174 133 373 130 350 173 482 199 606 6 33 14 60 18 60 3 0 26 -64 51 -143z"/>
<path d="M26920 1140 l0 -1100 140 0 140 0 0 520 0 520 565 0 565 0 2 -517 3
-518 143 -3 142 -3 0 1101 0 1100 -145 0 -145 0 0 -450 0 -450 -565 0 -565 0
0 450 0 450 -140 0 -140 0 0 -1100z"/>
<path d="M29160 1140 l0 -1100 145 0 145 0 0 1100 0 1100 -145 0 -145 0 0
-1100z"/>
<path d="M31206 2232 c-6 -10 -816 -2140 -823 -2164 -5 -17 7 -18 145 -18
l150 0 14 37 c8 21 62 170 119 330 l104 293 456 0 457 0 36 -92 c19 -51 75
-199 125 -328 l89 -235 161 -3 c89 -1 161 1 161 6 0 4 -198 496 -439 1093
l-439 1084 -156 3 c-85 1 -157 -1 -160 -6z m219 -428 c35 -104 120 -337 188
-519 l124 -330 -184 -3 c-100 -1 -266 -1 -367 0 l-184 3 125 335 c120 323 188
532 214 653 7 31 14 55 16 53 2 -2 33 -88 68 -192z"/>
<path d="M35033 1473 c3 -752 4 -770 26 -867 32 -142 73 -240 133 -321 95
-125 242 -210 438 -252 128 -27 404 -25 522 5 175 43 278 101 386 216 94 101
143 213 179 410 14 78 17 201 20 834 l4 742 -145 0 -145 0 -4 -747 c-4 -802
-4 -806 -57 -946 -53 -140 -163 -224 -340 -260 -87 -17 -294 -14 -369 6 -178
48 -290 160 -338 339 -15 56 -17 150 -20 836 l-4 772 -145 0 -145 0 4 -767z"/>
<path d="M37425 1193 c-219 -577 -406 -1069 -416 -1096 l-19 -47 153 0 152 0
94 263 c52 144 105 292 119 330 l24 67 457 0 456 0 125 -330 125 -330 163 0
c96 0 162 4 160 9 -1 5 -201 498 -443 1095 l-440 1086 -156 0 -156 0 -398
-1047z m814 64 c61 -164 111 -300 111 -302 0 -3 -164 -5 -365 -5 -201 0 -365
2 -365 5 0 3 60 169 134 368 113 307 178 507 211 652 6 26 19 -4 85 -195 42
-124 127 -359 189 -523z"/>
<path d="M39270 1146 l0 -1096 145 0 145 0 0 486 0 485 253 -3 253 -3 66 -33
c123 -60 229 -197 547 -704 l143 -228 179 0 c170 0 179 1 170 18 -23 43 -386
612 -429 672 -76 106 -193 221 -270 265 l-69 40 108 26 c252 63 395 181 465
385 23 66 27 96 27 184 1 178 -55 322 -168 436 -67 68 -133 103 -250 136 -78
22 -96 22 -697 26 l-618 3 0 -1095z m1141 840 c128 -27 214 -89 266 -189 24
-46 27 -64 28 -147 0 -82 -4 -103 -26 -151 -53 -113 -134 -173 -274 -205 -54
-12 -159 -17 -457 -21 l-388 -6 0 367 0 366 393 0 c298 0 408 -4 458 -14z"/>
<path d="M41520 1145 l0 -1095 145 0 145 0 0 1095 0 1095 -145 0 -145 0 0
-1095z"/>
</g>
</svg>
